#N canvas 0 0 1366 686 10;
#X obj 404 114 soundfiler;
#X msg 404 56 read -resize loop2.wav array1;
#X obj 411 162 f;
#N canvas 0 0 450 300 (subpatch) 0;
#X array array1 403473 float 2;
#X coords 0 1 403473 -1 200 140 1;
#X restore 100 20 graph;
#X obj 383 230 phasor~;
#X obj 382 145 bng 15 250 50 0 empty empty empty 17 7 0 10 -262144
-1 -1;
#X obj 457 188 expr 1 / (($f1 / 44.1) / 1000);
#X obj 428 294 tabread4~ array1;
#X obj 407 390 *~ 0.4;
#X obj 341 275 *~;
#X obj 344 207 sig~;
#X obj 553 305 line~;
#X obj 522 376 tabread4~ array1;
#X obj 649 45 tgl 15 0 empty empty empty 17 7 0 10 -262144 -1 -1 1
1;
#X obj 626 196 t b b;
#X obj 643 309 pack;
#X obj 576 236 random 88000;
#X obj 609 268 +;
#X obj 658 231 random 20000;
#X obj 668 274 / 20;
#X obj 773 114 tgl 15 0 empty empty empty 17 7 0 10 -262144 -1 -1 1
1;
#X obj 767 297 line~;
#X obj 801 323 tabread4~ array1;
#X obj 525 427 *~ 0.8;
#X obj 220 321 osc~;
#X obj 257 362 *~;
#X obj 290 327 sig~ 200;
#X obj 173 269 osc~ 0.2;
#X obj 170 300 *~ 100;
#X obj 320 385 +~;
#X obj 636 599 *~;
#X obj 476 408 *~ 0.6;
#X obj 524 519 osc~ 10;
#X obj 272 501 vsl 15 128 0 20 0 0 empty empty empty 0 -9 0 10 -262144
-1 -1 9900 1;
#X obj 657 481 noise~;
#X obj 731 525 *~;
#X obj 365 407 *~ 0.2;
#X obj 454 354 *~;
#X obj 194 412 fiddle~;
#X floatatom 239 459 5 0 0 0 - - -;
#X floatatom 261 432 5 0 0 0 - - -;
#X obj 181 472 sig~;
#X obj 213 488 sig~;
#X obj 197 524 +~;
#X obj 184 581 clip~ 0 1;
#X obj 367 476 panner;
#X obj 369 515 s~ sigL;
#X obj 420 530 s~ sigR;
#X obj 1022 341 r~ sigL;
#X obj 1086 347 r~ sigR;
#X obj 1039 267 metro 100;
#X obj 1031 229 tgl 15 0 empty empty empty 17 7 0 10 -262144 -1 -1
1 1;
#X obj 969 294 osc~ 1;
#X obj 421 417 panner;
#X obj 458 473 panner;
#X obj 495 490 panner;
#X obj 983 330 snapshot~;
#X obj 930 395 snapshot~;
#X obj 915 359 osc~ 1.5;
#X obj 843 437 snapshot~;
#X obj 828 401 osc~ 0.4;
#X obj 409 260 tabread4~ array1;
#X obj 865 217 random 100;
#X obj 853 267 + 200;
#X obj 788 267 + 0;
#X obj 750 227 random 80000;
#X obj 711 326 hip~ 400;
#X obj 629 116 metro 141;
#X obj 753 185 metro 566;
#X obj 1038 405 *~;
#X obj 782 483 line~;
#X obj 1066 414 *~;
#X obj 1139 389 noise~;
#X msg 818 469 4000;
#X obj 1073 65 vsl 15 128 2 4600 1 0 empty empty empty 0 -9 0 10 -262144
-1 -1 10632 1;
#X obj 790 536 osc~;
#X obj 1112 416 *~ 0.003;
#X obj 1158 458 hsl 128 15 -45 45 0 0 empty empty empty -2 -8 0 10
-262144 -1 -1 0 1;
#X obj 1082 499 pan~;
#X obj 1127 503 pan~;
#X obj 1133 539 pan~;
#X obj 1198 527 pan~;
#X obj 964 532 vsl 15 40 0 1 0 0 empty empty empty 0 -9 0 10 -262144
-1 -1 0 1;
#X obj 987 553 *~;
#X obj 925 498 lop~ 80;
#X obj 862 71 phasor~;
#X obj 872 112 expr~ 1 - $v1;
#X obj 889 141 *~;
#X obj 897 177 tabread4~ array1;
#X obj 993 73 sig~;
#X obj 930 279 *~;
#X obj 960 29 hsl 128 15 0 0.4 0 0 empty empty empty -2 -8 0 10 -262144
-1 -1 9500 1;
#X obj 705 22 loadbang;
#X obj 703 56 t b b b b;
#X msg 655 15 1;
#X obj 707 134 bng 15 250 50 0 empty empty empty 17 7 0 10 -262144
-1 -1;
#X obj 715 548 pan~;
#X obj 723 591 pan~;
#X obj 767 573 pan~;
#X obj 775 616 pan~;
#X obj 1051 574 s~ wetL;
#X obj 1115 578 s~ wetR;
#X obj 1178 217 hsl 128 15 -45 45 0 0 empty empty empty -2 -8 0 10
-262144 -1 -1 12700 1;
#X obj 1207 261 pan~;
#X obj 1241 265 pan~;
#X obj 1239 291 pan~;
#X obj 1273 295 pan~;
#X obj 1130 243 r~ wetL;
#X obj 1133 274 r~ wetR;
#X obj 1206 342 dac~;
#X obj 373 303 s~ dry;
#X obj 1290 259 r~ dry;
#X obj 1165 51 line;
#X msg 1155 18 45 \, -45 10000;
#X obj 1212 84 line;
#X obj 1268 33 delay 5000;
#X obj 1261 10 bng 15 250 50 0 empty empty empty 17 7 0 10 -262144
-1 -1;
#X obj 1130 145 mtof;
#X floatatom 1134 174 7 0 0 0 - - -;
#X msg 1230 40 0;
#X msg 1264 78 0 \, 100 5000;
#X obj 1258 108 metro 30;
#X obj 1212 114 > 99;
#X obj 1253 171 snapshot~;
#X obj 1120 204 +;
#X floatatom 1098 226 5 0 0 0 - - -;
#X obj 1246 387 writesf~ 2;
#X obj 1192 170 - 1900;
#X obj 1218 188 * 1000;
#X obj 1281 147 abs~;
#X obj 1246 126 osc~ 10;
#X obj 491 225 *~;
#X obj 445 218 sig~;
#X obj 469 142 hsl 128 15 1 500 1 0 empty empty empty -2 -8 0 10 -262144
-1 -1 0 1;
#X msg 1206 358 start;
#X msg 1210 390 stop;
#X msg 1235 429 open example.wav;
#X connect 0 0 2 1;
#X connect 1 0 0 0;
#X connect 2 0 6 0;
#X connect 2 0 10 0;
#X connect 4 0 9 1;
#X connect 5 0 2 0;
#X connect 6 0 132 0;
#X connect 7 0 30 0;
#X connect 7 0 37 0;
#X connect 7 0 38 0;
#X connect 8 0 53 0;
#X connect 9 0 29 1;
#X connect 9 0 61 0;
#X connect 10 0 9 0;
#X connect 10 0 87 0;
#X connect 11 0 12 0;
#X connect 12 0 8 0;
#X connect 13 0 67 0;
#X connect 14 0 18 0;
#X connect 14 1 16 0;
#X connect 15 0 11 0;
#X connect 16 0 11 0;
#X connect 16 0 17 1;
#X connect 17 0 15 0;
#X connect 18 0 17 0;
#X connect 18 0 19 0;
#X connect 19 0 15 1;
#X connect 20 0 68 0;
#X connect 21 0 22 0;
#X connect 22 0 66 0;
#X connect 23 0 55 0;
#X connect 24 0 25 0;
#X connect 25 0 29 0;
#X connect 26 0 25 1;
#X connect 27 0 28 0;
#X connect 28 0 24 0;
#X connect 29 0 7 0;
#X connect 30 0 31 0;
#X connect 31 0 54 0;
#X connect 32 0 30 1;
#X connect 33 0 32 0;
#X connect 34 0 35 0;
#X connect 35 0 37 1;
#X connect 36 0 45 0;
#X connect 37 0 36 0;
#X connect 38 2 39 0;
#X connect 38 3 40 0;
#X connect 39 0 41 0;
#X connect 40 0 42 0;
#X connect 41 0 43 0;
#X connect 42 0 43 1;
#X connect 43 0 44 0;
#X connect 44 0 35 1;
#X connect 45 0 46 0;
#X connect 45 1 47 0;
#X connect 48 0 69 1;
#X connect 48 0 80 0;
#X connect 49 0 71 1;
#X connect 49 0 81 0;
#X connect 50 0 56 0;
#X connect 50 0 57 0;
#X connect 50 0 59 0;
#X connect 51 0 50 0;
#X connect 52 0 56 0;
#X connect 53 0 46 0;
#X connect 53 1 47 0;
#X connect 54 0 46 0;
#X connect 54 1 47 0;
#X connect 55 0 46 0;
#X connect 55 1 47 0;
#X connect 56 0 45 1;
#X connect 57 0 54 1;
#X connect 58 0 57 0;
#X connect 59 0 55 1;
#X connect 60 0 59 0;
#X connect 61 0 84 0;
#X connect 61 0 110 0;
#X connect 62 0 63 0;
#X connect 63 0 21 1;
#X connect 64 0 21 0;
#X connect 65 0 64 0;
#X connect 66 0 23 0;
#X connect 67 0 14 0;
#X connect 68 0 62 0;
#X connect 68 0 65 0;
#X connect 69 0 78 0;
#X connect 70 0 75 0;
#X connect 71 0 79 0;
#X connect 72 0 76 0;
#X connect 73 0 70 1;
#X connect 74 0 70 0;
#X connect 75 0 69 0;
#X connect 75 0 71 0;
#X connect 76 0 71 1;
#X connect 76 0 69 1;
#X connect 77 0 78 1;
#X connect 77 0 79 1;
#X connect 77 0 80 1;
#X connect 77 0 81 1;
#X connect 78 0 100 0;
#X connect 79 0 101 0;
#X connect 80 1 100 0;
#X connect 81 1 101 0;
#X connect 82 0 83 1;
#X connect 83 0 100 0;
#X connect 83 0 101 0;
#X connect 84 0 83 0;
#X connect 85 0 86 0;
#X connect 86 0 87 1;
#X connect 87 0 88 0;
#X connect 88 0 90 0;
#X connect 89 0 90 1;
#X connect 90 0 78 0;
#X connect 90 0 79 0;
#X connect 91 0 89 0;
#X connect 92 0 93 0;
#X connect 93 0 95 0;
#X connect 93 1 5 0;
#X connect 93 2 94 0;
#X connect 93 3 1 0;
#X connect 94 0 13 0;
#X connect 94 0 20 0;
#X connect 94 0 51 0;
#X connect 102 0 103 1;
#X connect 102 0 104 1;
#X connect 102 0 105 1;
#X connect 102 0 106 1;
#X connect 103 0 109 0;
#X connect 103 0 126 0;
#X connect 104 0 109 1;
#X connect 104 0 126 1;
#X connect 105 1 109 0;
#X connect 105 1 126 0;
#X connect 106 1 109 1;
#X connect 106 1 126 1;
#X connect 107 0 103 0;
#X connect 108 0 104 0;
#X connect 111 0 105 0;
#X connect 111 0 106 0;
#X connect 112 0 102 0;
#X connect 113 0 112 0;
#X connect 114 0 117 0;
#X connect 114 0 122 0;
#X connect 115 0 120 0;
#X connect 116 0 115 0;
#X connect 116 0 113 0;
#X connect 116 0 119 0;
#X connect 117 0 118 0;
#X connect 118 0 74 0;
#X connect 118 0 124 1;
#X connect 119 0 74 0;
#X connect 119 0 114 0;
#X connect 120 0 114 0;
#X connect 121 0 123 0;
#X connect 122 0 121 0;
#X connect 123 0 128 0;
#X connect 124 0 74 0;
#X connect 124 0 125 0;
#X connect 127 0 124 0;
#X connect 128 0 127 0;
#X connect 129 0 123 0;
#X connect 130 0 129 0;
#X connect 131 0 4 0;
#X connect 131 0 85 0;
#X connect 132 0 131 0;
#X connect 133 0 131 1;
#X connect 134 0 126 0;
#X connect 135 0 126 0;
#X connect 136 0 126 0;
