#N canvas 0 0 450 300 10;
#X obj 191 64 inlet~;
#X obj 256 154 pan~;
#X obj 300 43 inlet;
#X obj 255 230 outlet~;
#X obj 331 224 outlet~;
#X obj 284 102 expr ($f1 * 45);
#X connect 0 0 1 0;
#X connect 1 0 3 0;
#X connect 1 1 4 0;
#X connect 2 0 5 0;
#X connect 5 0 1 1;
