#N canvas 256 209 495 341 10;
#X obj 177 10 inlet~;
#X obj 201 279 outlet~;
#X obj 274 276 outlet~;
#X obj 210 32 loadbang;
#X obj  244 242 delwrite~ $0-line250 250;
#X obj  159 184 delread~ $0-line250 250;
#X obj 147 139 *~ 0.9;
#X obj 221 215 pan~;
#X msg 180 130 28.9285714285714;
#X obj  182 104 delwrite~ $0-line500 250;
#X obj  257 285 delread~ $0-line500 250;
#X obj  298 201 delwrite~ $0-line750 250;
#X obj  272 206 delread~ $0-line750 250;
#X obj 209 140 *~ 0.7;
#X obj 156 277 pan~;
#X msg 124 108 16.0714285714286;
#X obj  222 262 delwrite~ $0-line1000 250;
#X obj  157 252 delread~ $0-line1000 250;
#X obj 245 277 *~ 0.6;
#X obj 124 131 pan~;
#X msg 242 285 9.64285714285714;
#X obj  189 180 delwrite~ $0-line1250 250;
#X obj  204 130 delread~ $0-line1250 250;
#X obj 293 275 *~ 0.9;
#X obj 127 246 pan~;
#X msg 142 170 3.21428571428572;
#X obj  225 273 delwrite~ $0-line1500 250;
#X obj  285 100 delread~ $0-line1500 250;
#X obj  245 115 delwrite~ $0-line1750 250;
#X obj  277 120 delread~ $0-line1750 250;
#X obj 172 258 *~ 0.2;
#X obj 227 272 pan~;
#X msg 259 103 16.0714285714286;
#X obj  157 151 delwrite~ $0-line2000 250;
#X obj  255 111 delread~ $0-line2000 250;
#X obj 254 156 *~ 0.1;
#X obj 170 131 pan~;
#X msg 243 208 16.0714285714286;
#X obj  247 107 delwrite~ $0-line2250 250;
#X obj  174 219 delread~ $0-line2250 250;
#X obj 290 118 *~ 0.2;
#X obj 226 281 pan~;
#X msg 208 175 16.0714285714286;
#X obj  257 271 delwrite~ $0-line2500 250;
#X obj  131 100 delread~ $0-line2500 250;
#X obj 272 250 *~ 0.1;
#X obj 147 130 pan~;
#X msg 148 122 16.0714285714286;
#X obj  230 169 delwrite~ $0-line2750 250;
#X obj  200 163 delread~ $0-line2750 250;
#X obj 201 122 *~ 0.2;
#X obj 105 269 pan~;
#X msg 290 241 16.0714285714286;
#X obj  185 130 delwrite~ $0-line3000 250;
#X obj  144 118 delread~ $0-line3000 250;
#X obj 162 202 *~ 0.2;
#X obj 250 248 pan~;
#X msg 181 248 -32.1428571428571;
#X obj  217 206 delwrite~ $0-line3250 250;
#X obj  218 147 delread~ $0-line3250 250;
#X obj 282 153 *~ 0.1;
#X obj 271 144 pan~;
#X msg 290 121 -32.1428571428571;
#X obj  249 217 delwrite~ $0-line3500 250;
#X obj  108 190 delread~ $0-line3500 250;
#X obj 148 153 *~ 0.2;
#X obj 135 202 pan~;
#X msg 248 204 -32.1428571428571;
#X obj 244 135 *~ 0.5;
#X obj 108 114 *~ 0.4;
#X obj 242 172 *~ 0.4;
#X connect 0 0 4 0;
#X connect 5 0 6 0;
#X connect 6 0 7 0;
#X connect 7 0 1 0;
#X connect 7 1 2 0;
#X connect 3 0 8 0;
#X connect 8 0 7 1;
#X connect 5 0 9 0;
#X connect 10 0 11 0;
#X connect 12 0 13 0;
#X connect 13 0 14 0;
#X connect 14 0 1 0;
#X connect 14 1 2 0;
#X connect 3 0 15 0;
#X connect 15 0 14 1;
#X connect 12 0 16 0;
#X connect 17 0 18 0;
#X connect 18 0 19 0;
#X connect 19 0 1 0;
#X connect 19 1 2 0;
#X connect 3 0 20 0;
#X connect 20 0 19 1;
#X connect 17 0 21 0;
#X connect 22 0 23 0;
#X connect 23 0 24 0;
#X connect 24 0 1 0;
#X connect 24 1 2 0;
#X connect 3 0 25 0;
#X connect 25 0 24 1;
#X connect 22 0 26 0;
#X connect 27 0 28 0;
#X connect 29 0 30 0;
#X connect 30 0 31 0;
#X connect 31 0 1 0;
#X connect 31 1 2 0;
#X connect 3 0 32 0;
#X connect 32 0 31 1;
#X connect 29 0 33 0;
#X connect 34 0 35 0;
#X connect 35 0 36 0;
#X connect 36 0 1 0;
#X connect 36 1 2 0;
#X connect 3 0 37 0;
#X connect 37 0 36 1;
#X connect 34 0 38 0;
#X connect 39 0 40 0;
#X connect 40 0 41 0;
#X connect 41 0 1 0;
#X connect 41 1 2 0;
#X connect 3 0 42 0;
#X connect 42 0 41 1;
#X connect 39 0 43 0;
#X connect 44 0 45 0;
#X connect 45 0 46 0;
#X connect 46 0 1 0;
#X connect 46 1 2 0;
#X connect 3 0 47 0;
#X connect 47 0 46 1;
#X connect 44 0 48 0;
#X connect 49 0 50 0;
#X connect 50 0 51 0;
#X connect 51 0 1 0;
#X connect 51 1 2 0;
#X connect 3 0 52 0;
#X connect 52 0 51 1;
#X connect 49 0 53 0;
#X connect 54 0 55 0;
#X connect 55 0 56 0;
#X connect 56 0 1 0;
#X connect 56 1 2 0;
#X connect 3 0 57 0;
#X connect 57 0 56 1;
#X connect 54 0 58 0;
#X connect 59 0 60 0;
#X connect 60 0 61 0;
#X connect 61 0 1 0;
#X connect 61 1 2 0;
#X connect 3 0 62 0;
#X connect 62 0 61 1;
#X connect 59 0 63 0;
#X connect 64 0 65 0;
#X connect 65 0 66 0;
#X connect 66 0 1 0;
#X connect 66 1 2 0;
#X connect 3 0 67 0;
#X connect 67 0 66 1;
#X connect 22 0 68 0;
#X connect 68 0 4 0;
#X connect 49 0 69 0;
#X connect 69 0 28 0;
#X connect 64 0 70 0;
#X connect 70 0 53 0;

