#N canvas 256 209 495 341 10;
#X obj 177 10 inlet~;
#X obj 201 279 outlet~;
#X obj 274 276 outlet~;
#X obj 210 32 loadbang;
#X obj  181 207 delwrite~ $0-line500 500;
#X obj  247 240 delread~ $0-line500 500;
#X obj 218 224 *~ 0.2;
#X obj 246 184 pan~;
#X msg 274 255 -25;
#X obj  171 114 delwrite~ $0-line1000 500;
#X obj  118 193 delread~ $0-line1000 500;
#X obj 246 127 *~ 0.4;
#X obj 237 127 pan~;
#X msg 244 299 5;
#X obj  129 106 delwrite~ $0-line1500 500;
#X obj  103 252 delread~ $0-line1500 500;
#X obj 112 120 *~ 0.6;
#X obj 119 213 pan~;
#X msg 278 268 25;
#X obj  154 191 delwrite~ $0-line2000 500;
#X obj  288 205 delread~ $0-line2000 500;
#X obj 247 204 *~ 0.8;
#X obj 217 227 pan~;
#X msg 239 187 -5;
#X obj  146 115 delwrite~ $0-line2500 500;
#X obj  221 117 delread~ $0-line2500 500;
#X obj 128 267 *~ 0.2;
#X obj 208 175 pan~;
#X msg 214 254 -25;
#X obj  245 290 delwrite~ $0-line3000 500;
#X obj  151 132 delread~ $0-line3000 500;
#X obj 157 285 *~ 0.1;
#X obj 264 232 pan~;
#X msg 132 165 -45;
#X obj 126 176 *~ 0.2;
#X connect 0 0 4 0;
#X connect 5 0 6 0;
#X connect 6 0 7 0;
#X connect 7 0 1 0;
#X connect 7 1 2 0;
#X connect 3 0 8 0;
#X connect 8 0 7 1;
#X connect 5 0 9 0;
#X connect 10 0 11 0;
#X connect 11 0 12 0;
#X connect 12 0 1 0;
#X connect 12 1 2 0;
#X connect 3 0 13 0;
#X connect 13 0 12 1;
#X connect 10 0 14 0;
#X connect 15 0 16 0;
#X connect 16 0 17 0;
#X connect 17 0 1 0;
#X connect 17 1 2 0;
#X connect 3 0 18 0;
#X connect 18 0 17 1;
#X connect 15 0 19 0;
#X connect 20 0 21 0;
#X connect 21 0 22 0;
#X connect 22 0 1 0;
#X connect 22 1 2 0;
#X connect 3 0 23 0;
#X connect 23 0 22 1;
#X connect 20 0 24 0;
#X connect 25 0 26 0;
#X connect 26 0 27 0;
#X connect 27 0 1 0;
#X connect 27 1 2 0;
#X connect 3 0 28 0;
#X connect 28 0 27 1;
#X connect 25 0 29 0;
#X connect 30 0 31 0;
#X connect 31 0 32 0;
#X connect 32 0 1 0;
#X connect 32 1 2 0;
#X connect 3 0 33 0;
#X connect 33 0 32 1;
#X connect 30 0 34 0;
#X connect 34 0 4 0;

