#N canvas 382 297 806 482 10;
#X obj 279 388 dac~;
#X obj 343 304 d2;
#X obj 341 205 tabread4~ array1;
#N canvas 0 0 450 300 (subpatch) 0;
#X array array1 96004 float 2;
#X coords 0 1 96004 -1 200 140 1;
#X restore 25 52 graph;
#X obj 337 79 soundfiler;
#X obj 336 0 loadbang;
#X obj 328 182 line~;
#X obj 321 121 f;
#X msg 259 127 0;
#X obj 339 150 pack;
#X obj 382 122 / 44.1;
#X obj 271 64 t b b;
#X obj 259 35 bng 15 250 50 0 empty empty empty 17 7 0 10 -262144 -1
-1;
#X msg 327 40 read -resize F2.wav array1;
#N canvas 0 0 450 300 (subpatch) 0;
#X array array2 95998 float 2;
#X coords 0 1 95998 -1 200 140 1;
#X restore 28 286 graph;
#X obj 603 101 soundfiler;
#X obj 602 22 loadbang;
#X obj 577 193 line~;
#X obj 587 143 f;
#X msg 525 149 0;
#X obj 600 167 pack;
#X obj 648 144 / 44.1;
#X obj 537 86 t b b;
#X obj 522 45 bng 15 250 50 0 empty empty empty 17 7 0 10 -262144 -1
-1;
#X obj 462 240 tabread4~ array2;
#X msg 595 64 read -resize F1.wav array2;
#X obj 424 338 d1;
#X text 252 246 500 --2------ -----4--- -------6- ----8---- --2------
1-------- feedback 7 2 0.2;
#X text 261 225 D2:;
#X text 576 230 250 -----------------------9---- ----------------------------
-------------------7-------- -----------------6---------- ---------------9------------
---------------------------- -------------------2-------- -------------------1--------
-------------------2-------- -------------------1-------- -------------------2--------
----2----------------------- ----1----------------------- ----2-----------------------
feedback 6 2 0.5 12 8 0.4 15 13 0.4;
#N canvas 1207 287 608 520 score 0;
#X obj 165 47 inlet;
#X text 169 21 bang;
#X obj 177 345 s t1;
#X obj 359 354 s t2;
#X obj 209 229 metro 5000;
#X obj 315 118 counter;
#X msg 291 190 5000;
#X msg 333 191 2000;
#X msg 394 192 1000;
#X msg 450 192 500;
#X msg 504 192 250;
#X obj 297 154 sel 0 1 2 3 4 5;
#X obj 464 302 outlet;
#X text 486 330 bang (done);
#X obj 309 68 metro 4999;
#X obj 270 285 t b b b;
#X obj 269 322 delay 500;
#X obj 346 326 delay 1000;
#X obj 222 152 tgl 15 0 empty empty empty 17 7 0 10 -262144 -1 -1 0
1;
#X msg 368 238 0;
#X msg 175 96 1;
#X connect 0 0 5 3;
#X connect 0 0 20 0;
#X connect 4 0 2 0;
#X connect 4 0 15 0;
#X connect 5 0 11 0;
#X connect 6 0 4 1;
#X connect 7 0 4 1;
#X connect 8 0 4 1;
#X connect 9 0 4 1;
#X connect 10 0 4 1;
#X connect 11 0 6 0;
#X connect 11 1 7 0;
#X connect 11 2 8 0;
#X connect 11 3 9 0;
#X connect 11 4 10 0;
#X connect 11 5 12 0;
#X connect 11 5 19 0;
#X connect 14 0 5 0;
#X connect 15 0 16 0;
#X connect 15 1 17 0;
#X connect 15 2 3 0;
#X connect 16 0 3 0;
#X connect 17 0 3 0;
#X connect 18 0 4 0;
#X connect 18 0 14 0;
#X connect 19 0 18 0;
#X connect 20 0 18 0;
#X restore 402 409 pd score;
#X obj 508 13 r t1;
#X obj 229 6 r t2;
#X obj 406 376 bng 15 250 50 0 empty empty empty 17 7 0 10 -262144
-1 -1;
#X obj 407 446 bng 15 250 50 0 empty empty empty 17 7 0 10 -262144
-1 -1;
#X obj 260 440 writesf~ 2;
#X obj 328 279 *~ 0.2;
#X obj 430 282 *~ 0.2;
#X msg 153 453 open delayOut.wav;
#X msg 357 434 start;
#X msg 357 457 stop;
#X connect 1 0 0 0;
#X connect 1 0 35 0;
#X connect 1 1 0 1;
#X connect 1 1 35 1;
#X connect 2 0 36 0;
#X connect 4 0 7 1;
#X connect 4 0 10 0;
#X connect 5 0 13 0;
#X connect 6 0 2 0;
#X connect 7 0 9 0;
#X connect 8 0 6 0;
#X connect 9 0 6 0;
#X connect 10 0 9 1;
#X connect 11 0 7 0;
#X connect 11 1 8 0;
#X connect 12 0 11 0;
#X connect 13 0 4 0;
#X connect 15 0 18 1;
#X connect 15 0 21 0;
#X connect 16 0 25 0;
#X connect 17 0 24 0;
#X connect 18 0 20 0;
#X connect 19 0 17 0;
#X connect 20 0 17 0;
#X connect 21 0 20 1;
#X connect 22 0 18 0;
#X connect 22 1 19 0;
#X connect 23 0 22 0;
#X connect 24 0 37 0;
#X connect 25 0 15 0;
#X connect 26 0 0 0;
#X connect 26 0 35 0;
#X connect 26 1 0 1;
#X connect 26 1 35 1;
#X connect 30 0 34 0;
#X connect 31 0 23 0;
#X connect 32 0 12 0;
#X connect 33 0 30 0;
#X connect 36 0 1 0;
#X connect 37 0 26 0;
#X connect 38 0 35 0;
#X connect 39 0 35 0;
#X connect 40 0 35 0;
