#N canvas 0 1 1366 687 10;
#X text 46 20 Bouncing Ball Delay Patch (Bucephalus Bouncing Ball)
;
#X obj 91 160 soundfiler;
#N canvas 0 0 450 300 (subpatch) 0;
#X array array1 4343 float 2;
#X coords 0 1 4343 -1 200 140 1;
#X restore 394 412 graph;
#X obj 142 397 line~;
#X obj 136 276 float;
#X obj 140 447 tabread4~ array1;
#X obj 52 309 t b b;
#X msg 73 346 0;
#X obj 140 314 pack;
#X msg 63 129 read -resize \$1 array1;
#X obj 75 75 bng 15 250 50 0 empty empty empty 17 7 0 10 -262144 -1
-1;
#X obj 75 99 openpanel;
#X obj 247 246 / 44.1;
#X obj 708 351 delay 500;
#X obj 709 397 spigot;
#X obj 50 225 r trig;
#X obj 754 432 t b b;
#X obj 777 479 s trig;
#X obj 457 146 hsl 128 15 100 5000 0 0 empty empty empty -2 -8 0 10
-262144 -1 -1 0 1;
#X obj 467 180 hsl 128 15 1000 10000 0 0 empty empty empty -2 -8 0
10 -262144 -1 -1 0 1;
#X obj 440 221 int;
#X obj 509 224 int;
#X msg 506 266 0 \$1;
#X obj 472 305 line;
#X obj 767 265 t b b b;
#X floatatom 495 380 10 0 0 0 - - -;
#X obj 790 365 > 10;
#X obj 112 197 s length;
#X obj 162 237 r length;
#X obj 240 195 r length;
#X obj 970 366 line~;
#X obj 961 252 float;
#X obj 995 461 tabread4~ array1;
#X obj 917 352 t b b;
#X msg 898 322 0;
#X obj 965 290 pack;
#X obj 1072 222 / 44.1;
#X obj 987 213 r length;
#X obj 1065 171 r length;
#X text 33 203 LINKS;
#X text 930 152 RECHTS;
#X text 97 69 Datei öffnen;
#X obj 1123 307 vsl 15 80 1 100 1 0 empty empty empty 0 -9 0 10 -262144
-1 -1 0 1;
#X obj 1152 308 vsl 15 80 1 100 1 0 empty empty empty 0 -9 0 10 -262144
-1 -1 0 1;
#X obj 1113 419 s dL;
#X obj 1162 422 s dR;
#X obj 62 265 delay 0;
#X obj 103 235 r dL;
#X obj 854 187 r trig;
#X obj 918 189 r dR;
#X obj 863 240 delay 0;
#X text 259 38 [Soundalike];
#X obj 104 599 s~ left;
#X obj 743 46 r~ left;
#X obj 808 55 r~ right;
#X obj 754 111 writesf~ 2;
#X obj 646 25 bng 15 250 50 0 empty empty empty 17 7 0 10 -262144 -1
-1;
#X msg 685 81 open \$1;
#X msg 906 44 start;
#X msg 888 85 stop;
#X obj 823 440 s stop;
#X obj 806 402 sel 0;
#X obj 603 192 t b b;
#X obj 638 217 delay 10;
#X obj 663 200 s start;
#X obj 515 13 bng 30 250 50 0 empty empty empty 17 7 0 10 -262144 -1
-1;
#X obj 645 50 savepanel;
#X obj 901 19 r start;
#X obj 251 307 osc~;
#X obj 335 72 vsl 15 128 0.2 20 1 0 empty empty empty 0 -9 0 10 -262144
-1 -1 0 1;
#X obj 209 391 *~;
#X obj 201 339 sig~;
#X obj 259 349 +~ 1;
#X obj 252 377 /~ 2;
#X obj 252 452 tabread4~ array1;
#X msg 308 238 0;
#X floatatom 342 380 5 0 0 0 - - -;
#X obj 551 299 -;
#X obj 601 331 * -1;
#X floatatom 614 364 5 0 0 0 - - -;
#X obj 350 321 expr 1000 / $f1;
#X obj 263 538 *~;
#X obj 287 516 sig~;
#X obj 294 476 r SinusOn;
#X obj 142 573 *~;
#X obj 166 551 sig~;
#X obj 173 511 r BounceOn;
#X obj 1010 583 *~;
#X obj 1034 561 sig~;
#X obj 1041 521 r BounceOn;
#X obj 972 609 s~ right;
#X obj 1026 139 s BounceOn;
#X obj 1114 145 s SinusOn;
#X obj 1074 110 unpack;
#X msg 1058 81 1 0;
#X msg 1096 79 0 1;
#X obj 517 55 bng 15 250 50 0 empty empty empty 17 7 0 10 -262144 -1
-1;
#X obj 518 76 bng 15 250 50 0 empty empty empty 17 7 0 10 -262144 -1
-1;
#X obj 519 95 bng 15 250 50 0 empty empty empty 17 7 0 10 -262144 -1
-1;
#X msg 1137 72 0 0;
#X text 538 52 Bouncing Ball;
#X text 542 73 Sinus Wavetable Read;
#X text 540 93 OFF;
#X msg 632 141 2856;
#X msg 658 116 357;
#X msg 703 142 714;
#X obj 524 570 r~ left;
#X obj 601 566 r~ right;
#X obj 574 605 dac~;
#X obj 249 608 s~ sinL;
#X obj 362 600 s~ sinR;
#X obj 483 581 r~ sinL;
#X obj 637 513 r~ sinR;
#X obj 727 18 r~ sinL;
#X obj 812 22 r~ sinR;
#X text 25 48 ------------------------------------------------------------
;
#X text 25 21 >;
#X text 25 33 >;
#X text 24 43 >;
#X text 24 7 ------------------------------------------------------------
;
#X text 375 19 <;
#X text 374 31 <;
#X text 374 41 <;
#X text 372 101 comment;
#X text 397 124 First bounce interval (100 - 5000 ms);
#X text 427 162 Total Time (1000 - 10000 ms);
#X text 73 39 2013 Jan Freymann;
#X text 1107 272 channel delay left/right;
#X text 418 65 1 Select Mode;
#X text 453 21 2 PLAY;
#X obj 582 13 loadbang;
#X connect 1 0 27 0;
#X connect 3 0 5 0;
#X connect 4 0 8 0;
#X connect 4 0 71 0;
#X connect 5 0 84 0;
#X connect 6 0 4 0;
#X connect 6 1 7 0;
#X connect 7 0 3 0;
#X connect 8 0 3 0;
#X connect 9 0 1 0;
#X connect 10 0 11 0;
#X connect 11 0 9 0;
#X connect 12 0 8 1;
#X connect 13 0 14 0;
#X connect 14 0 16 0;
#X connect 15 0 46 0;
#X connect 16 0 13 0;
#X connect 16 1 17 0;
#X connect 18 0 20 1;
#X connect 19 0 21 1;
#X connect 20 0 23 0;
#X connect 20 0 77 1;
#X connect 21 0 22 0;
#X connect 22 0 23 0;
#X connect 23 0 25 0;
#X connect 23 0 77 0;
#X connect 23 0 13 1;
#X connect 24 0 16 0;
#X connect 24 1 21 0;
#X connect 24 2 20 0;
#X connect 25 0 26 0;
#X connect 26 0 14 1;
#X connect 26 0 61 0;
#X connect 28 0 4 1;
#X connect 29 0 12 0;
#X connect 30 0 32 0;
#X connect 31 0 35 0;
#X connect 32 0 87 0;
#X connect 33 0 31 0;
#X connect 33 1 34 0;
#X connect 34 0 30 0;
#X connect 35 0 30 0;
#X connect 36 0 35 1;
#X connect 37 0 31 1;
#X connect 38 0 36 0;
#X connect 42 0 44 0;
#X connect 43 0 45 0;
#X connect 46 0 6 0;
#X connect 47 0 46 1;
#X connect 48 0 50 0;
#X connect 49 0 50 1;
#X connect 50 0 33 0;
#X connect 53 0 55 0;
#X connect 54 0 55 1;
#X connect 56 0 66 0;
#X connect 57 0 55 0;
#X connect 58 0 55 0;
#X connect 59 0 55 0;
#X connect 61 0 60 0;
#X connect 62 0 63 0;
#X connect 62 1 64 0;
#X connect 63 0 24 0;
#X connect 65 0 62 0;
#X connect 65 0 75 0;
#X connect 66 0 57 0;
#X connect 67 0 58 0;
#X connect 68 0 72 0;
#X connect 69 0 68 0;
#X connect 70 0 74 0;
#X connect 71 0 70 0;
#X connect 72 0 73 0;
#X connect 73 0 70 1;
#X connect 74 0 81 0;
#X connect 75 0 68 1;
#X connect 76 0 68 0;
#X connect 77 0 78 0;
#X connect 78 0 79 0;
#X connect 79 0 80 0;
#X connect 80 0 76 0;
#X connect 81 0 109 0;
#X connect 81 0 110 0;
#X connect 82 0 81 1;
#X connect 83 0 82 0;
#X connect 84 0 52 0;
#X connect 85 0 84 1;
#X connect 86 0 85 0;
#X connect 87 0 90 0;
#X connect 88 0 87 1;
#X connect 89 0 88 0;
#X connect 93 0 91 0;
#X connect 93 1 92 0;
#X connect 94 0 93 0;
#X connect 95 0 93 0;
#X connect 96 0 94 0;
#X connect 97 0 95 0;
#X connect 98 0 99 0;
#X connect 99 0 93 0;
#X connect 103 0 19 0;
#X connect 104 0 18 0;
#X connect 105 0 18 0;
#X connect 106 0 108 0;
#X connect 107 0 108 1;
#X connect 111 0 108 0;
#X connect 112 0 108 1;
#X connect 113 0 55 0;
#X connect 114 0 55 1;
#X connect 130 0 96 0;
