#N canvas 443 175 1456 690 10;
#X declare -lib mrpeach;
#X obj 131 26 import mrpeach;
#X obj 19 21 udpreceive 7777;
#X obj 31 76 unpackOSC;
#X obj 50 155 t b;
#X obj 94 200 bng 15 250 50 0 empty empty empty 17 7 0 10 -262144 -1
-1;
#X obj 9 200 print hello;
#X obj 73 132 route /hello /cell/allocate /cell/remove;
#X obj 49 232 route 1 2 3 4 5 6 7 8 9 10 11 12 13 14 15 16 17 18 19
20 21 22 23 24 25 26 27 28 29 30 31 32 33 34 35 36;
#X obj 170 172 list append 1;
#X obj 288 173 list append 0;
#X obj 720 241 route 1 2 3 4 5 6 7 8 9 10 11 12 13 14 15 16 17 18 19
20 21 22 23 24 25 26 27 28 29 30 31 32 33 34 35 36;
#X obj 1101 604 s~ sig;
#X obj 642 19 r~ sig;
#X obj 670 146 dac~;
#X obj 333 31 bng 15 250 50 0 empty empty empty 17 7 0 10 -262144 -1
-1;
#N canvas 434 168 501 381 panic 0;
#X obj 160 156 counter 36;
#X obj 157 187 + 1;
#X obj 147 93 tgl 15 0 empty empty empty 17 7 0 10 -262144 -1 -1 0
1;
#X obj 197 199 sel 36;
#X msg 176 88 0;
#X msg 120 69 1;
#X obj 111 18 inlet;
#X obj 182 312 outlet;
#X obj 166 43 t b b;
#X msg 174 254 /cell/remove \$1 0 0;
#X obj 147 123 metro 10;
#X connect 0 0 1 0;
#X connect 1 0 3 0;
#X connect 1 0 9 0;
#X connect 2 0 10 0;
#X connect 3 0 4 0;
#X connect 4 0 2 0;
#X connect 5 0 2 0;
#X connect 6 0 8 0;
#X connect 8 0 5 0;
#X connect 8 1 0 2;
#X connect 9 0 7 0;
#X connect 10 0 0 0;
#X restore 330 64 pd panic;
#X obj 348 136 print;
#N canvas 0 0 450 300 (subpatch) 0;
#X array array1 2.8224e+006 float 2;
#X coords 0 1 2.8224e+006 -1 200 140 1;
#X restore 1150 33 graph;
#X obj 1167 248 s totalLength;
#X obj 464 159 s bar;
#X obj 451 77 tgl 15 0 empty empty empty 17 7 0 10 -262144 -1 -1 0
1;
#X obj 989 114 soundfiler;
#X obj 966 15 loadbang;
#X obj 547 146 s 16th;
#X obj 544 108 / 16;
#X obj 536 48 loadbang;
#X obj 595 176 s tick;
#X obj 610 128 metro 250;
#X obj 609 88 tgl 15 0 empty empty empty 17 7 0 10 -262144 -1 -1 0
1;
#X obj 707 483 sgen;
#X msg 554 76 2000;
#X obj 152 571 packOSC;
#X msg 148 537 /tick 0;
#X obj 148 626 udpsend;
#X msg 233 592 connect 127.0.0.1 7778;
#X obj 487 584 bng 15 250 50 0 empty empty empty 17 7 0 10 -262144
-1 -1;
#X text 477 558 START;
#X obj 476 612 t b b;
#X obj 503 645 s sbang;
#X obj 437 646 s sbang2;
#X obj 559 580 bng 15 250 50 0 empty empty empty 17 7 0 10 -262144
-1 -1;
#X text 547 554 STOP;
#X obj 562 611 s stop;
#X msg 465 55 0;
#X obj 471 21 r stop;
#X obj 413 24 r sbang2;
#X obj 240 555 r sbang;
#X msg 416 55 1;
#X msg 969 62 read -resize pianoloop1.wav array1;
#X obj 450 107 metro 8000;
#X obj 96 428 sgen;
#X obj 131 432 sgen;
#X obj 167 433 sgen;
#X obj 202 437 sgen;
#X obj 237 438 sgen;
#X obj 272 443 sgen;
#X obj 308 443 sgen;
#X obj 343 447 sgen;
#X obj 386 454 sgen;
#X obj 421 458 sgen;
#X obj 457 459 sgen;
#X obj 492 463 sgen;
#X obj 527 464 sgen;
#X obj 562 468 sgen;
#X obj 598 469 sgen;
#X obj 633 473 sgen;
#X obj 672 479 sgen;
#X obj 743 484 sgen;
#X obj 778 488 sgen;
#X obj 813 491 sgen;
#X obj 848 493 sgen;
#X obj 884 494 sgen;
#X obj 919 498 sgen;
#X obj 962 505 sgen;
#X obj 997 509 sgen;
#X obj 1033 510 sgen;
#X obj 1068 514 sgen;
#X obj 1103 515 sgen;
#X obj 1138 519 sgen;
#X obj 1174 520 sgen;
#X obj 1209 524 sgen;
#X obj 1247 527 sgen;
#X obj 1282 531 sgen;
#X obj 1318 532 sgen;
#X obj 1353 536 sgen;
#X obj 658 62 *~ 0.05;
#X obj 704 118 writesf~ 2;
#X msg 715 16 open pianoout.wav;
#X msg 729 39 start;
#X msg 782 62 stop;
#X connect 1 0 2 0;
#X connect 2 0 6 0;
#X connect 3 0 4 0;
#X connect 3 0 5 0;
#X connect 6 0 3 0;
#X connect 6 1 8 0;
#X connect 6 2 9 0;
#X connect 7 0 50 0;
#X connect 7 1 51 0;
#X connect 7 2 52 0;
#X connect 7 3 53 0;
#X connect 7 4 54 0;
#X connect 7 5 55 0;
#X connect 7 6 56 0;
#X connect 7 7 57 0;
#X connect 7 8 58 0;
#X connect 7 9 59 0;
#X connect 7 10 60 0;
#X connect 7 11 61 0;
#X connect 7 12 62 0;
#X connect 7 13 63 0;
#X connect 7 14 64 0;
#X connect 7 15 65 0;
#X connect 7 16 66 0;
#X connect 7 17 29 0;
#X connect 7 18 67 0;
#X connect 7 19 68 0;
#X connect 7 20 69 0;
#X connect 7 21 70 0;
#X connect 7 22 71 0;
#X connect 7 23 72 0;
#X connect 7 24 73 0;
#X connect 7 25 74 0;
#X connect 7 26 75 0;
#X connect 7 27 76 0;
#X connect 7 28 77 0;
#X connect 7 29 78 0;
#X connect 7 30 79 0;
#X connect 7 31 80 0;
#X connect 7 32 81 0;
#X connect 7 33 82 0;
#X connect 7 34 83 0;
#X connect 7 35 84 0;
#X connect 8 0 7 0;
#X connect 9 0 10 0;
#X connect 10 0 50 0;
#X connect 10 1 51 0;
#X connect 10 2 52 0;
#X connect 10 3 53 0;
#X connect 10 4 54 0;
#X connect 10 5 55 0;
#X connect 10 6 56 0;
#X connect 10 7 57 0;
#X connect 10 8 58 0;
#X connect 10 9 59 0;
#X connect 10 10 60 0;
#X connect 10 11 61 0;
#X connect 10 12 62 0;
#X connect 10 13 63 0;
#X connect 10 14 64 0;
#X connect 10 15 65 0;
#X connect 10 16 66 0;
#X connect 10 17 29 0;
#X connect 10 18 67 0;
#X connect 10 19 68 0;
#X connect 10 20 69 0;
#X connect 10 21 70 0;
#X connect 10 22 71 0;
#X connect 10 23 72 0;
#X connect 10 24 73 0;
#X connect 10 25 74 0;
#X connect 10 26 75 0;
#X connect 10 27 76 0;
#X connect 10 28 77 0;
#X connect 10 29 78 0;
#X connect 10 30 79 0;
#X connect 10 31 80 0;
#X connect 10 32 81 0;
#X connect 10 33 82 0;
#X connect 10 34 83 0;
#X connect 10 35 84 0;
#X connect 12 0 85 0;
#X connect 14 0 15 0;
#X connect 15 0 6 0;
#X connect 15 0 16 0;
#X connect 20 0 49 0;
#X connect 21 0 18 0;
#X connect 22 0 48 0;
#X connect 24 0 23 0;
#X connect 25 0 30 0;
#X connect 27 0 26 0;
#X connect 28 0 27 0;
#X connect 29 0 11 0;
#X connect 30 0 24 0;
#X connect 31 0 33 0;
#X connect 32 0 31 0;
#X connect 34 0 33 0;
#X connect 35 0 37 0;
#X connect 37 0 39 0;
#X connect 37 1 38 0;
#X connect 40 0 42 0;
#X connect 43 0 20 0;
#X connect 44 0 43 0;
#X connect 45 0 47 0;
#X connect 46 0 34 0;
#X connect 47 0 20 0;
#X connect 48 0 21 0;
#X connect 49 0 19 0;
#X connect 49 0 32 0;
#X connect 50 0 11 0;
#X connect 51 0 11 0;
#X connect 52 0 11 0;
#X connect 53 0 11 0;
#X connect 54 0 11 0;
#X connect 55 0 11 0;
#X connect 56 0 11 0;
#X connect 57 0 11 0;
#X connect 58 0 11 0;
#X connect 59 0 11 0;
#X connect 60 0 11 0;
#X connect 61 0 11 0;
#X connect 62 0 11 0;
#X connect 63 0 11 0;
#X connect 64 0 11 0;
#X connect 65 0 11 0;
#X connect 66 0 11 0;
#X connect 67 0 11 0;
#X connect 68 0 11 0;
#X connect 69 0 11 0;
#X connect 70 0 11 0;
#X connect 71 0 11 0;
#X connect 72 0 11 0;
#X connect 73 0 11 0;
#X connect 74 0 11 0;
#X connect 75 0 11 0;
#X connect 76 0 11 0;
#X connect 77 0 11 0;
#X connect 78 0 11 0;
#X connect 79 0 11 0;
#X connect 80 0 11 0;
#X connect 81 0 11 0;
#X connect 82 0 11 0;
#X connect 83 0 11 0;
#X connect 84 0 11 0;
#X connect 85 0 13 0;
#X connect 85 0 13 1;
#X connect 85 0 86 0;
#X connect 85 0 86 1;
#X connect 87 0 86 0;
#X connect 88 0 86 0;
#X connect 89 0 86 0;
