#N canvas 235 291 699 463 10;
#X obj 393 396 outlet~;
#X text 405 419 audio;
#X obj 379 25 inlet;
#X text 228 -4 argument list (x \, y \, alive);
#X obj 394 68 unpack 0 0 0;
#X obj 476 140 line~;
#X msg 491 109 \$1 500;
#X obj 355 262 osc~;
#X obj 276 49 r fundamental;
#X obj 324 160 *;
#X obj 377 111 + 1;
#X obj 422 108 / 20;
#X obj 419 147 sig~;
#X obj 392 323 *~;
#X obj 324 212 line~;
#X msg 329 186 \$1 200;
#X obj 328 83 t b f;
#X obj 360 137 f;
#X connect 2 0 4 0;
#X connect 4 0 10 0;
#X connect 4 1 11 0;
#X connect 4 2 6 0;
#X connect 6 0 5 0;
#X connect 7 0 13 0;
#X connect 8 0 9 1;
#X connect 8 0 16 0;
#X connect 9 0 15 0;
#X connect 10 0 17 0;
#X connect 11 0 12 0;
#X connect 12 0 13 1;
#X connect 13 0 0 0;
#X connect 14 0 7 0;
#X connect 15 0 14 0;
#X connect 16 0 17 0;
#X connect 16 1 9 1;
#X connect 17 0 9 0;
