#N canvas 235 291 699 463 10;
#X obj 393 396 outlet~;
#X text 405 419 audio;
#X obj 379 25 inlet;
#X text 228 -4 argument list (x \, y \, alive);
#X obj 394 68 unpack 0 0 0;
#X obj 476 140 line~;
#X msg 466 108 \$1 100;
#X obj 447 374 *~;
#X obj 366 262 -~ 0.5;
#X obj 372 301 *~ 2;
#X msg 138 160 0;
#X msg 171 159 2;
#X msg 203 159 4;
#X msg 237 161 7;
#X msg 270 158 9;
#X obj 169 101 sel 0 1 2 3 4;
#X obj 190 57 % 5;
#X obj 112 78 div 5;
#X obj 96 121 * 12;
#X obj 94 210 +;
#X obj 138 27 t f f;
#X obj 101 250 + 36;
#X obj 119 287 mtof;
#X obj 125 375 line~;
#X msg 131 317 \$1 100;
#X msg 430 115 \$1 40;
#X obj 435 175 osc~;
#X obj 432 148 line~;
#X obj 418 277 *~;
#X obj 365 116 / 20;
#X obj 388 204 line~;
#X msg 371 155 \$1 500;
#X obj 202 283 phasor~;
#X connect 2 0 4 0;
#X connect 4 0 20 0;
#X connect 4 1 25 0;
#X connect 4 1 29 0;
#X connect 4 2 6 0;
#X connect 5 0 7 1;
#X connect 6 0 5 0;
#X connect 7 0 0 0;
#X connect 8 0 9 0;
#X connect 9 0 28 0;
#X connect 10 0 19 1;
#X connect 11 0 19 1;
#X connect 12 0 19 1;
#X connect 13 0 19 1;
#X connect 14 0 19 1;
#X connect 15 0 10 0;
#X connect 15 1 11 0;
#X connect 15 2 12 0;
#X connect 15 3 13 0;
#X connect 15 4 14 0;
#X connect 16 0 15 0;
#X connect 17 0 18 0;
#X connect 18 0 19 0;
#X connect 19 0 21 0;
#X connect 20 0 17 0;
#X connect 20 1 16 0;
#X connect 21 0 22 0;
#X connect 22 0 24 0;
#X connect 23 0 32 0;
#X connect 24 0 23 0;
#X connect 25 0 27 0;
#X connect 26 0 28 1;
#X connect 27 0 26 0;
#X connect 28 0 7 0;
#X connect 29 0 31 0;
#X connect 31 0 30 0;
#X connect 32 0 8 0;
