#N canvas 385 0 944 962 10;
#X obj 305 50 inlet;
#X text 154 21 argument list (x \, y \, alive);
#X text 709 73 y: sample offset;
#X text 709 52 x: timing;
#X obj 361 502 tabread4~ array1;
#X obj 355 566 outlet~;
#X obj 302 127 unpack 0 0 0;
#X obj 438 159 r totalLength;
#X obj 340 210 f;
#X obj 274 169 r 16th;
#X obj 244 201 *;
#X obj 235 228 delay;
#X obj 195 200 r bar;
#X obj 398 229 / 16;
#X obj 480 359 / 44.1;
#X obj 451 392 pack;
#X obj 371 455 line~;
#X obj 404 367 +;
#X obj 366 261 *;
#X obj 359 294 t f f;
#X obj 265 259 spigot;
#X connect 0 0 6 0;
#X connect 4 0 5 0;
#X connect 6 0 10 0;
#X connect 6 1 8 1;
#X connect 6 2 20 1;
#X connect 7 0 13 0;
#X connect 8 0 18 0;
#X connect 9 0 10 1;
#X connect 10 0 11 1;
#X connect 11 0 20 0;
#X connect 12 0 11 0;
#X connect 13 0 18 1;
#X connect 13 0 14 0;
#X connect 13 0 17 1;
#X connect 14 0 15 1;
#X connect 15 0 16 0;
#X connect 16 0 4 0;
#X connect 17 0 15 0;
#X connect 18 0 19 0;
#X connect 19 0 17 0;
#X connect 19 1 16 0;
#X connect 20 0 8 0;
